<svg xmlns="http://www.w3.org/2000/svg" width="17" height="17" viewBox="0 0 17 17">
  <defs>
    <style>
      .cls-1 {
        fill: #7c7e88;
        fill-rule: evenodd;
      }
    </style>
  </defs>
  <path id="logo.svg" class="cls-1" d="M8.5,7A1.5,1.5,0,1,1,7,8.5,1.5,1.5,0,0,1,8.5,7Zm0-7A1.5,1.5,0,1,1,7,1.5,1.5,1.5,0,0,1,8.5,0Zm0,14A1.5,1.5,0,1,1,7,15.5,1.5,1.5,0,0,1,8.5,14Zm-7-7A1.5,1.5,0,1,1,0,8.5,1.5,1.5,0,0,1,1.5,7Zm14,0A1.5,1.5,0,1,1,14,8.5,1.5,1.5,0,0,1,15.5,7ZM2.49,12.389a1.5,1.5,0,1,1,0,2.122A1.5,1.5,0,0,1,2.49,12.389Zm9.9-9.9a1.5,1.5,0,1,1,0,2.122A1.5,1.5,0,0,1,12.389,2.489ZM4.6,2.43a1.511,1.511,0,1,1-2.137,0A1.511,1.511,0,0,1,4.6,2.43ZM14.57,12.4a1.511,1.511,0,1,1-2.137,0A1.511,1.511,0,0,1,14.57,12.4Z"/>
</svg>
